# xmcd CD database file
#
# Track frame offsets:
#	150
#	12735
#	26520
#	42492
#	59395
#	78667
#	96752
#	113680
#	133490
#	147310
#	164112
#	184485
#	206177
#	222365
#	243742
#	268372
#
# Disc length: 3812 seconds
#
# Revision: 4
# Processed by: cddbd v1.5PL3 Copyright (c) Steve Scherf et al.
# Submitted via: CDex 1.50beta10
#
DISCID=0c0ee210
DTITLE=笠原弘子 - My Best Friends （DISC 2)
DYEAR=1991
DGENRE=JPop
TTITLE0=私のANDROID君
TTITLE1=BOY'S SICK（HIROKOヴァージョン）
TTITLE2=未来派LOVERS
TTITLE3=INTERFACE
TTITLE4=Believe yourself Again
TTITLE5=涙のハングルドール
TTITLE6=アバウトにメランコリー
TTITLE7=約束の土地へ（TICKEMAGA MIX)
TTITLE8=熱風翔女
TTITLE9=あいつ
TTITLE10=Love and Power
TTITLE11=あま色の夢のつぼ
TTITLE12=アッセンブル・インサート
TTITLE13=TEENAGE DREAM '91
TTITLE14=STAND-BY APRIL '91
TTITLE15=コンディション・グリーン
EXTD=YEAR: 1991
EXTT0=
EXTT1=
EXTT2=
EXTT3=
EXTT4=
EXTT5=
EXTT6=
EXTT7=
EXTT8=
EXTT9=
EXTT10=
EXTT11=
EXTT12=
EXTT13=
EXTT14=
EXTT15=
PLAYORDER=
